<?xml version="1.0" encoding="UTF-8" standalone="no"?>
<!-- Created with Inkscape (http://www.inkscape.org/) -->

<svg
   width="1500"
   height="500"
   viewBox="0 0 1500 500"
   version="1.1"
   id="svg1"
   inkscape:version="1.4.4 (dcaf3e7, 2026-05-05)"
   sodipodi:docname="logo.svg"
   xmlns:inkscape="http://www.inkscape.org/namespaces/inkscape"
   xmlns:sodipodi="http://sodipodi.sourceforge.net/DTD/sodipodi-0.dtd"
   xmlns="http://www.w3.org/2000/svg"
   xmlns:svg="http://www.w3.org/2000/svg">
  <sodipodi:namedview
     id="namedview1"
     pagecolor="#ffffff"
     bordercolor="#000000"
     borderopacity="0.25"
     inkscape:showpageshadow="2"
     inkscape:pageopacity="0.0"
     inkscape:pagecheckerboard="0"
     inkscape:deskcolor="#d1d1d1"
     inkscape:document-units="px"
     inkscape:zoom="0.81466667"
     inkscape:cx="684.94272"
     inkscape:cy="260.84288"
     inkscape:window-width="1366"
     inkscape:window-height="745"
     inkscape:window-x="-8"
     inkscape:window-y="-8"
     inkscape:window-maximized="1"
     inkscape:current-layer="layer1" />
  <defs
     id="defs1" />
  <g
     inkscape:label="Camada 1"
     inkscape:groupmode="layer"
     id="layer1">
    <rect
       style="fill:#d3a877;fill-opacity:1;stroke-width:3.37723"
       id="rect1"
       width="1500"
       height="500"
       x="5.6843419e-14"
       y="-2.8421709e-14"
       ry="0" />
    <path
       style="fill:#000000;fill-opacity:1;stroke-width:4"
       d="m 543.78069,297.05401 146.07201,24.54992 -71.19476,-108.01964 33.14239,-96.97218 c 0,0 139.93453,12.27496 144.84451,15.95745 4.90999,3.68249 -68.73977,60.1473 -68.73977,60.1473 L 682.48773,177.98691 675.12275,211.1293 750,298.28151 736.49755,367.02128 662.84779,392.79869 551.14566,368.24877 Z"
       id="path1" />
    <path
       style="fill:#000000;fill-opacity:1;stroke-width:4"
       d="m 912.23719,217.86064 c 0,0 32.66004,25.62016 51.21027,-6.50978 18.55022,-32.12993 -38.70884,-18.59271 -42.87775,-53.61374 -4.24697,-35.67679 69.2711,-27.28955 85.84229,-13.88753 12.3294,9.97147 -3.9248,16.74599 -22.20113,12.81783 -12.41495,-2.66836 -33.7308,-14.03609 -38.25989,-5.24529 -6.52435,12.66352 15.35416,16.3205 24.0625,18.6539 38.86682,10.41432 52.60212,59.19185 5.28859,86.50834 -31.51185,18.19337 -82.94853,7.47898 -97.34972,-11.7176 -4.04122,-5.38689 -11.26596,-23.70506 3.47188,-32.21395 14.73783,-8.5089 30.81296,5.20782 30.81296,5.20782 z"
       id="path2"
       sodipodi:nodetypes="csssssssssc" />
    <path
       style="fill:#000000;fill-opacity:1;stroke-width:3.36017"
       d="m 1030.4456,164.1606 c -25.6824,44.20044 -4.3382,107.83534 40.3421,116.52433 44.6804,8.68897 74.9363,-9.82233 86.898,-26.06693 11.9617,-16.24461 27.0957,-52.6524 19.4059,-71.03406 -8.0848,-19.32571 -37.8812,-28.99383 -44.0975,-10.43713 -6.9259,20.6752 3.156,58.09782 -18.6565,63.38676 -21.8124,5.28894 -37.7855,12.71494 -50.5862,2.2176 -14.5956,-11.96934 -15.3841,-21.36134 -9.4783,-34.96147 7.7828,-17.92233 15.5756,-19.22889 19.0938,-34.71794 3.3031,-14.54262 -1.4073,-27.57805 -15.8317,-26.06693 -14.4243,1.51113 -27.0896,21.15577 -27.0896,21.15577 z"
       id="path3"
       sodipodi:nodetypes="csssssssssc" />
    <path
       style="fill:#000000;fill-opacity:1;stroke-width:2.02247"
       d="m 1204.7873,208.30343 c -3.4226,-8.05764 -16.7879,-53.56987 4.0402,-60.64393 20.828,-7.07406 44.9232,-14.14812 53.9079,-7.07406 8.9846,7.07406 14.2937,15.56292 7.7595,25.46661 -6.5344,9.90368 -30.2212,5.18764 -41.6562,2.35802 -11.435,-2.82963 -16.7441,1.41481 -14.7021,12.2617 2.042,10.84689 11.435,19.33576 22.87,18.86415 11.435,-0.4716 17.2398,-7.7013 29.6996,-9.99402 7.4433,-1.36965 22.1709,-4.95515 25.9526,4.94853 3.5807,9.37712 -5.0364,15.72513 -16.3635,19.66521 -8.2647,2.8748 -23.5621,-1.60212 -34.9972,1.69911 -11.435,3.30122 -11.2342,8.20457 -6.7418,14.80702 4.4923,6.60246 21.6448,15.09133 22.8699,24.5234 1.2252,9.43208 -1.6336,17.44935 -13.0685,18.86416 -11.4351,1.41481 -12.6602,5.65925 -20.8282,-6.13085 -8.1678,-11.7901 -11.1813,-36.3083 -13.3555,-42.65186 -2.457,-7.16836 -5.3867,-16.96319 -5.3867,-16.96319 z"
       id="path4"
       sodipodi:nodetypes="csssssssssssssssc" />
  </g>
</svg>
